<?xml version="1.0" standalone="no"?>
<!DOCTYPE svg PUBLIC "-//W3C//DTD SVG 1.1//EN" "http://www.w3.org/Graphics/SVG/1.1/DTD/svg11.dtd" >
<svg xmlns="http://www.w3.org/2000/svg">
<metadata>Generated by IcoMoon</metadata>
<defs>
<font id="icomoon" horiz-adv-x="1024">
<font-face units-per-em="1024" ascent="960" descent="-64" />
<missing-glyph horiz-adv-x="1024" />
<glyph unicode="&#x20;" horiz-adv-x="512" d="" />
<glyph unicode="&#xe900;" glyph-name="ishop_1-01" d="M512 631.467c112.64 0 204.8-92.16 204.8-204.8s-92.16-204.8-204.8-204.8-204.8 92.16-204.8 204.8 92.16 204.8 204.8 204.8zM512 654.223c-125.156 0-227.556-102.4-227.556-227.556s102.4-227.556 227.556-227.556 227.556 102.4 227.556 227.556-102.4 227.556-227.556 227.556v0zM577.991 596.196c-20.48 7.964-43.236 12.516-65.991 12.516-54.613 0-103.538-23.893-136.533-61.44v-29.582l34.133-56.889 68.267-45.511 56.889-11.378-34.133 34.133-11.378 56.889 56.889 22.756 31.858 78.507zM681.529 359.538l-32.996 44.373-45.511 11.378-68.267-11.378 22.756-68.267-29.582-91.022c20.48 2.276 40.96 6.827 59.164 14.791l38.684 30.72 53.476 63.716c0 1.138 1.138 3.413 2.276 5.689z" />
<glyph unicode="&#xe901;" glyph-name="ishop_1-02" d="M659.911 290.134c0-19.342-14.791-34.133-34.133-34.133h-68.267v68.267c0 25.031-20.48 45.511-45.511 45.511s-45.511-20.48-45.511-45.511v-68.267h-68.267c-19.342 0-34.133 14.791-34.133 34.133v125.156h-22.756v-125.156c0-31.858 25.031-56.889 56.889-56.889h227.556c31.858 0 56.889 25.031 56.889 56.889v125.156h-22.756v-125.156zM364.089 460.8l22.756 159.289c-27.307 0-50.062-18.204-58.027-43.236l-32.996-116.053c0-12.516 10.24-22.756 22.756-22.756h22.756c12.516 0 22.756 10.24 22.756 22.756zM409.6 438.045h22.756c12.516 0 22.756 10.24 22.756 22.756l11.378 159.289h-56.889l-22.756-159.289c0-12.516 10.24-22.756 22.756-22.756zM500.622 438.045h22.756c12.516 0 22.756 10.24 22.756 22.756l-11.378 159.289h-45.511l-11.378-159.289c0-12.516 10.24-22.756 22.756-22.756zM591.644 438.045h22.756c12.516 0 22.756 10.24 22.756 22.756l-22.756 159.289h-56.889l11.378-159.289c0-12.516 10.24-22.756 22.756-22.756zM695.182 576.854c-7.964 25.031-30.72 43.236-58.027 43.236l22.756-159.289c0-12.516 10.24-22.756 22.756-22.756h22.756c12.516 0 22.756 10.24 22.756 22.756l-32.996 116.053z" />
<glyph unicode="&#xe902;" glyph-name="ishop_1-03" d="M512 439.183c44.373 0 79.644 58.027 79.644 102.4 0 20.48-7.964 39.822-20.48 53.476 14.791 10.24 20.48 26.169 20.48 26.169-18.204-14.791-36.409 0-79.644 0-44.373 0-79.644-35.271-79.644-79.644s35.271-102.4 79.644-102.4zM674.702 381.156c-2.276 19.342-14.791 36.409-32.996 44.373l-53.476 25.031-5.689-5.689c-19.342-18.204-44.373-28.444-70.542-28.444s-51.2 10.24-70.542 28.444l-5.689 5.689-53.476-25.031c-18.204-7.964-29.582-25.031-32.996-44.373l-19.342-145.636 22.756-3.413 19.342 145.636c1.138 11.378 9.102 21.618 19.342 26.169l39.822 18.204c1.138-1.138 1.138-1.138 2.276-2.276l10.24-51.2 48.924 23.893c6.827-1.138 12.516-1.138 19.342-1.138s13.653 1.138 19.342 1.138l48.924-23.893 10.24 51.2c1.138 1.138 1.138 1.138 2.276 2.276l39.822-18.204c10.24-4.551 18.204-14.791 19.342-26.169l19.342-145.636 22.756 3.413-19.342 145.636zM512 370.916h-11.378l-11.378-113.778 22.756-22.756 22.756 22.756-11.378 113.778z" />
<glyph unicode="&#xe903;" glyph-name="ishop_2-01" d="M348.16 447.147v-163.84c0-22.528 18.432-40.96 40.96-40.96h81.92v81.92c0 22.528 18.432 40.96 40.96 40.96s40.96-18.432 40.96-40.96v-81.92h81.92c22.528 0 40.96 18.432 40.96 40.96v163.84h-327.68zM368.64 610.987c-22.528 0-40.96-18.432-40.96-40.96v-81.92h40.96v122.88zM409.6 610.987h40.96v-122.88h-40.96v122.88zM491.52 610.987h40.96v-122.88h-40.96v122.88zM573.44 610.987h40.96v-122.88h-40.96v122.88zM655.36 610.987v-122.88h40.96v81.92c0 22.528-18.432 40.96-40.96 40.96z" />
<glyph unicode="&#xe904;" glyph-name="ishop_2-02" d="M512 406.187c45.056 0 81.92 36.864 81.92 81.92v40.96c0 45.056-36.864 81.92-81.92 81.92s-81.92-36.864-81.92-81.92v-40.96c0-45.056 36.864-81.92 81.92-81.92zM624.64 426.667l-4.096 2.048c-20.48-36.864-61.44-63.488-106.496-63.488s-86.016 26.624-106.496 63.488l-8.192-2.048c-30.72-12.288-51.2-43.008-51.2-75.776v-67.584c0-22.528 18.432-40.96 40.96-40.96h245.76c22.528 0 40.96 18.432 40.96 40.96v67.584c0 32.768-20.48 63.488-51.2 75.776z" />
<glyph unicode="&#xe905;" glyph-name="ishop_2-03" d="M387.072 359.083l40.96 122.88c4.096 10.24-2.048 22.528-12.288 26.624s-22.528-2.048-26.624-12.288l-20.48-65.536-22.528 65.536c-4.096 10.24-14.336 16.384-26.624 12.288-10.24-4.096-16.384-14.336-12.288-26.624l40.96-122.88c2.048-8.192 10.24-14.336 18.432-14.336s18.432 6.144 20.48 14.336zM552.96 488.107c0 12.288-8.192 20.48-20.48 20.48h-40.96c-12.288 0-20.48-8.192-20.48-20.48s8.192-20.48 20.48-20.48v-81.92c-12.288 0-20.48-8.192-20.48-20.48s8.192-20.48 20.48-20.48h40.96c12.288 0 20.48 8.192 20.48 20.48s-8.192 20.48-20.48 20.48v81.92c12.288 0 20.48 8.192 20.48 20.48zM665.6 508.587h-51.2c-12.288 0-20.48-8.192-20.48-20.48v-122.88c0-12.288 8.192-20.48 20.48-20.48s20.48 8.192 20.48 20.48v40.96h30.72c28.672 0 51.2 22.528 51.2 51.2s-22.528 51.2-51.2 51.2zM665.6 447.147h-30.72v20.48h30.72c6.144 0 10.24-4.096 10.24-10.24s-4.096-10.24-10.24-10.24zM512 570.027c26.624 0 51.2-8.192 73.728-20.48h63.488c-32.768 36.864-81.92 61.44-137.216 61.44s-102.4-24.576-137.216-61.44h63.488c22.528 12.288 47.104 20.48 73.728 20.48zM512 283.307c-26.624 0-51.2 8.192-73.728 20.48h-63.488c32.768-36.864 81.92-61.44 137.216-61.44s102.4 24.576 137.216 61.44h-63.488c-22.528-12.288-47.104-20.48-73.728-20.48z" />
<glyph unicode="&#xe906;" glyph-name="ishop_2-04" d="M471.040 549.547c0 12.288 8.192 20.48 20.48 20.48h40.96c12.288 0 20.48-8.192 20.48-20.48v-20.48h40.96v20.48c0 34.816-26.624 61.44-61.44 61.44h-40.96c-34.816 0-61.44-26.624-61.44-61.44v-20.48h40.96v20.48zM675.84 266.923l-14.336 165.888c-2.048 30.72-28.672 55.296-61.44 55.296h-174.080c-32.768 0-57.344-24.576-61.44-55.296l-16.384-165.888c0-2.048 0-2.048 0-4.096 0-12.288 8.192-20.48 20.48-20.48h286.72c12.288 0 20.48 8.192 20.48 20.48 0 2.048 0 2.048 0 4.096zM512 324.267c-45.056 0-81.92 36.864-81.92 81.92h163.84c0-45.056-36.864-81.92-81.92-81.92z" />
<glyph unicode="&#xe907;" glyph-name="ishop_2-05" d="M514.048 428.715l182.272 83.968v36.864c0 12.288-8.192 20.48-20.48 20.48h-327.68c-12.288 0-20.48-8.192-20.48-20.48v-36.864l186.368-83.968zM514.048 383.659l-186.368 83.968v-163.84c0-12.288 8.192-20.48 20.48-20.48h327.68c12.288 0 20.48 8.192 20.48 20.48v163.84l-182.272-83.968z" />
<glyph unicode="&#xe908;" glyph-name="ishop_2-06" d="M593.92 610.987h-163.84c-22.528 0-40.96-18.432-40.96-40.96v-286.72c0-22.528 18.432-40.96 40.96-40.96h163.84c22.528 0 40.96 18.432 40.96 40.96v286.72c0 22.528-18.432 40.96-40.96 40.96zM512 283.307c-12.288 0-20.48 8.192-20.48 20.48s8.192 20.48 20.48 20.48 20.48-8.192 20.48-20.48c0-12.288-8.192-20.48-20.48-20.48zM593.92 365.227h-163.84v204.8h163.84v-204.8z" />
<glyph unicode="&#xe909;" glyph-name="ishop_2-07" d="M675.84 283.307v245.76h-204.8v-81.92h-122.88v-163.84h-20.48v-40.96h368.64v40.96h-20.48zM593.92 488.107h40.96v-40.96h-40.96v40.96zM593.92 406.187h40.96v-40.96h-40.96v40.96zM593.92 324.267h40.96v-40.96h-40.96v40.96zM512 488.107h40.96v-40.96h-40.96v40.96zM512 406.187h40.96v-40.96h-40.96v40.96zM512 324.267h40.96v-40.96h-40.96v40.96zM389.12 406.187h40.96v-40.96h-40.96v40.96zM389.12 324.267h40.96v-40.96h-40.96v40.96zM471.040 610.987h204.8v-40.96h-204.8v40.96z" />
<glyph unicode="&#xe90a;" glyph-name="ishop_2-08" d="M368.64 406.187h40.96v-81.92h-40.96v81.92zM450.56 529.067h40.96v-204.8h-40.96v204.8zM532.48 488.107h40.96v-163.84h-40.96v163.84zM614.4 610.987h40.96v-286.72h-40.96v286.72zM327.68 283.307h368.64v-40.96h-368.64v40.96z" />
<glyph unicode="&#xe90b;" glyph-name="ishop_2-09" d="M684.032 316.075l-120.832 120.832c6.144 16.384 10.24 32.768 10.24 51.2 0 67.584-55.296 122.88-122.88 122.88-16.384 0-30.72-2.048-45.056-8.192l61.44-61.44v-69.632h-69.632l-61.44 61.44c-6.144-14.336-8.192-28.672-8.192-45.056 0-67.584 55.296-122.88 122.88-122.88 18.432 0 34.816 4.096 51.2 10.24l120.832-120.832c16.384-16.384 45.056-16.384 61.44 0s16.384 45.056 0 61.44z" />
<glyph unicode="&#xe90c;" glyph-name="ishop_3-01" d="M307.2 401.067v-179.2c0-28.16 23.040-51.2 51.2-51.2h102.4v102.4c0 28.16 23.040 51.2 51.2 51.2s51.2-23.040 51.2-51.2v-102.4h102.4c28.16 0 51.2 23.040 51.2 51.2v179.2l-204.8 179.2-204.8-179.2zM512 682.667l-256-230.4v-25.6h25.6l230.4 204.8 230.4-204.8h25.6v25.6z" />
<glyph unicode="&#xe90d;" glyph-name="ishop_3-02" d="M460.8 221.867c0-28.16 23.040-51.2 51.2-51.2s51.2 23.040 51.2 51.2v51.2h-102.4v-51.2zM716.8 349.867c-28.16 0-51.2 23.040-51.2 51.2v69.12c0 76.8-53.76 145.92-128 158.72v53.76h-51.2v-53.76c-71.68-12.8-128-74.24-128-151.040v-76.8c0-28.16-23.040-51.2-51.2-51.2s-51.2-23.040-51.2-51.2h512c0 28.16-23.040 51.2-51.2 51.2z" />
<glyph unicode="&#xe90e;" glyph-name="ishop_3-03" d="M435.2 657.067h-153.6v-153.6h153.6v153.6zM384 554.667h-51.2v51.2h51.2v-51.2zM281.6 196.267h153.6v153.6h-153.6v-153.6zM332.8 298.667h51.2v-51.2h-51.2v51.2zM486.4 657.067h51.2v-153.6h-51.2v153.6zM588.8 657.067v-153.6h153.6v153.6h-153.6zM691.2 554.667h-51.2v51.2h51.2v-51.2zM281.6 452.267h460.8v-51.2h-460.8v51.2zM537.6 349.867h-51.2v-153.6h153.6v51.2h-102.4zM691.2 247.467h51.2v-51.2h-51.2v51.2zM588.8 349.867h153.6v-51.2h-153.6v51.2z" />
<glyph unicode="&#xe90f;" glyph-name="ishop_3-04" d="M714.24 452.267c-5.12 38.4-20.48 71.68-40.96 99.84l38.4 38.4-35.84 35.84-38.4-38.4c-28.16 23.040-61.44 35.84-99.84 40.96v53.76h-51.2v-53.76c-38.4-5.12-71.68-20.48-99.84-40.96l-38.4 38.4-35.84-35.84 38.4-38.4c-23.040-28.16-35.84-61.44-40.96-99.84h-53.76v-51.2h53.76c5.12-38.4 20.48-71.68 40.96-99.84l-38.4-38.4 35.84-35.84 38.4 38.4c28.16-23.040 61.44-35.84 99.84-40.96v-53.76h51.2v53.76c38.4 5.12 71.68 20.48 99.84 40.96l38.4-38.4 35.84 35.84-38.4 38.4c23.040 28.16 35.84 61.44 40.96 99.84h53.76v51.2h-53.76zM512 273.067c-84.48 0-153.6 69.12-153.6 153.6s69.12 153.6 153.6 153.6 153.6-69.12 153.6-153.6-69.12-153.6-153.6-153.6zM512 529.067c-56.32 0-102.4-46.080-102.4-102.4s46.080-102.4 102.4-102.4 102.4 46.080 102.4 102.4c0 56.32-46.080 102.4-102.4 102.4zM512 375.467c-28.16 0-51.2 23.040-51.2 51.2s23.040 51.2 51.2 51.2 51.2-23.040 51.2-51.2c0-28.16-23.040-51.2-51.2-51.2z" />
<glyph unicode="&#xe910;" glyph-name="ishop_3-05" d="M657.92 316.587c28.16 35.84 46.080 84.48 46.080 135.68 0 120.32-97.28 217.6-217.6 217.6s-217.6-97.28-217.6-217.6 97.28-217.6 217.6-217.6c51.2 0 97.28 17.92 135.68 46.080l97.28-97.28h35.84v35.84l-97.28 97.28zM486.4 285.867c-92.16 0-166.4 74.24-166.4 166.4s74.24 166.4 166.4 166.4 166.4-74.24 166.4-166.4-74.24-166.4-166.4-166.4z" />
<glyph unicode="&#xe911;" glyph-name="ishop_3-06" d="M512 682.667c-140.8 0-256-115.2-256-256s115.2-256 256-256 256 115.2 256 256-115.2 256-256 256zM417.28 244.907c0 2.56 0 2.56 0 5.12-5.12 12.8-7.68 25.6-7.68 40.96 0 38.4 20.48 71.68 53.76 89.6 2.56 2.56 5.12 2.56 7.68 5.12 12.8-5.12 28.16-10.24 40.96-10.24s28.16 2.56 40.96 10.24c2.56-2.56 5.12-5.12 7.68-5.12 33.28-17.92 53.76-51.2 53.76-89.6 0-12.8-2.56-28.16-7.68-40.96 0-2.56 0-2.56 0-5.12-28.16-15.36-61.44-23.040-94.72-23.040s-66.56 7.68-94.72 23.040zM512 426.667c-28.16 0-51.2 23.040-51.2 51.2s23.040 51.2 51.2 51.2 51.2-23.040 51.2-51.2-23.040-51.2-51.2-51.2zM665.6 290.987c0 51.2-28.16 99.84-71.68 125.44 12.8 17.92 20.48 38.4 20.48 58.88 0 56.32-46.080 102.4-102.4 102.4s-102.4-46.080-102.4-102.4c0-23.040 7.68-43.52 20.48-58.88-43.52-28.16-69.12-74.24-71.68-125.44-30.72 35.84-51.2 84.48-51.2 135.68 0 112.64 92.16 204.8 204.8 204.8s204.8-92.16 204.8-204.8c0-51.2-20.48-99.84-51.2-135.68z" />
<glyph unicode="&#xe912;" glyph-name="ishop_3-07" d="M604.16 636.587l-20.48-46.080c66.56-28.16 107.52-92.16 107.52-163.84 0-99.84-79.36-179.2-179.2-179.2s-179.2 79.36-179.2 179.2c0 71.68 40.96 135.68 107.52 163.84l-20.48 46.080c-84.48-35.84-138.24-117.76-138.24-209.92 0-128 102.4-230.4 230.4-230.4s230.4 102.4 230.4 230.4c0 92.16-53.76 174.080-138.24 209.92zM486.4 657.067h51.2v-204.8h-51.2v204.8z" />
<glyph unicode="&#xe913;" glyph-name="ishop_3-08" d="M512 682.667c-140.8 0-256-115.2-256-256s115.2-256 256-256 256 115.2 256 256-115.2 256-256 256zM512 221.867c-112.64 0-204.8 92.16-204.8 204.8s92.16 204.8 204.8 204.8 204.8-92.16 204.8-204.8-92.16-204.8-204.8-204.8zM512 580.267c-61.44 0-102.4-43.52-102.4-110.080h51.2c0 35.84 17.92 58.88 51.2 58.88 28.16 0 51.2-23.040 51.2-51.2 0-12.8-7.68-20.48-28.16-33.28-20.48-15.36-48.64-33.28-48.64-69.12h51.2c0 7.68 7.68 12.8 25.6 25.6 23.040 15.36 51.2 35.84 51.2 76.8 0 56.32-46.080 102.4-102.4 102.4zM537.6 298.667c0-14.138-11.462-25.6-25.6-25.6s-25.6 11.462-25.6 25.6c0 14.138 11.462 25.6 25.6 25.6s25.6-11.462 25.6-25.6z" />
<glyph unicode="&#xe914;" glyph-name="ishop_4-01" d="M341.333 597.334v-341.333h68.267v341.333zM614.4 597.334l-204.8-170.667 204.8-170.667h68.267v341.333z" />
<glyph unicode="&#xe915;" glyph-name="ishop_4-02" d="M682.667 256v341.333h-68.267v-341.333zM409.6 256l204.8 170.667-204.8 170.667h-68.267v-341.333z" />
<glyph unicode="&#xe916;" glyph-name="ishop_4-03" d="M768 682.667h-512v-102.4h512zM256 170.667h512v102.4l-256 307.2-256-307.2z" />
<glyph unicode="&#xe917;" glyph-name="ishop_4-04" d="M256 170.667h512v102.4h-512zM768 682.667h-512v-102.4l256-307.2 256 307.2z" />
<glyph unicode="&#xe918;" glyph-name="ishop_5-01" d="M791.273-85.333h-558.545c-130.327 0-232.727 102.4-232.727 232.727v558.545c0 130.327 102.4 232.727 232.727 232.727h558.545c130.327 0 232.727-102.4 232.727-232.727v-558.545c0-130.327-102.4-232.727-232.727-232.727z" />
<glyph unicode="&#xe919;" glyph-name="ishop_6-01" d="M563.2 477.867v256h-102.4v-256h-256v-102.4h256v-256h102.4v256h256v102.4z" />
<glyph unicode="&#xe91a;" glyph-name="ishop_6-02" d="M204.8 477.867h614.4v-102.4h-614.4v102.4z" />
<glyph unicode="&#xe91b;" glyph-name="ishop_6-03" d="M353.28 191.147l-92.16-15.36 15.36 92.16 409.6 409.6 76.8-76.8z" />
<glyph unicode="&#xe91c;" glyph-name="ishop_6-04" d="M665.6 119.467h-307.2c-87.040 0-153.6 66.56-153.6 153.6v307.2c0 87.040 66.56 153.6 153.6 153.6h307.2c87.040 0 153.6-66.56 153.6-153.6v-307.2c0-87.040-66.56-153.6-153.6-153.6zM358.4 631.467c-30.72 0-51.2-20.48-51.2-51.2v-307.2c0-30.72 20.48-51.2 51.2-51.2h307.2c30.72 0 51.2 20.48 51.2 51.2v307.2c0 30.72-20.48 51.2-51.2 51.2h-307.2z" />
<glyph unicode="&#xe91d;" glyph-name="ishop_6-05" d="M665.6 119.467h-102.4v358.4c0 10.24 5.12 20.48 10.24 30.72l92.16 122.88h-307.2l92.16-122.88c5.12-10.24 10.24-20.48 10.24-30.72v-358.4h-102.4v343.040l-143.36 189.44c-10.24 15.36-15.36 35.84-5.12 51.2s25.6 30.72 46.080 30.72h512c20.48 0 35.84-10.24 46.080-30.72s5.12-35.84-5.12-51.2l-143.36-189.44v-343.040z" />
<glyph unicode="&#xe91e;" glyph-name="ishop_6-06" d="M865.28 452.267l-153.6 256c-10.24 15.36-25.6 25.6-46.080 25.6h-307.2c-20.48 0-35.84-10.24-46.080-25.6l-153.6-256c-10.24-15.36-10.24-35.84 0-51.2l153.6-256c10.24-15.36 25.6-25.6 46.080-25.6h307.2c20.48 0 35.84 10.24 46.080 25.6l153.6 256c5.12 15.36 5.12 35.84 0 51.2zM634.88 221.867h-245.76l-122.88 204.8 122.88 204.8h250.88l122.88-204.8-128-204.8zM512 580.267c-87.040 0-153.6-66.56-153.6-153.6s66.56-153.6 153.6-153.6 153.6 66.56 153.6 153.6-66.56 153.6-153.6 153.6zM512 375.467c-30.72 0-51.2 20.48-51.2 51.2s20.48 51.2 51.2 51.2 51.2-20.48 51.2-51.2-20.48-51.2-51.2-51.2z" />
<glyph unicode="&#xe91f;" glyph-name="ishop_6-07" d="M307.2 426.667c0 56.32 20.48 107.52 61.44 143.36l-71.68 71.68c-61.44-56.32-92.16-133.12-92.16-215.040 0-168.96 138.24-307.2 307.2-307.2v102.4c-112.64 0-204.8 92.16-204.8 204.8zM512 733.867v-102.4c112.64 0 204.8-92.16 204.8-204.8 0-56.32-20.48-107.52-61.44-143.36l71.68-71.68c56.32 56.32 92.16 133.12 92.16 215.040 0 168.96-138.24 307.2-307.2 307.2z" />
<glyph unicode="&#xe920;" glyph-name="ishop_6-34" d="M512 810.667h-384v-384h384v384zM384 554.667h-128v128h128v-128zM256 362.667h-128v-256h128v128h128v128zM704 234.667h-64v-128h192v128h-64zM512 362.667h128v-128h-128v128zM704 426.667h128v-128h-128v128zM384 234.667h128v-128h-128v128zM832 682.667v0 128h-256v-128h128v-128h128zM576 554.667h128v-128h-128v128z" />
<glyph unicode="&#xe921;" glyph-name="ishop_6-35" d="M736 682.667h-384c-160 0-288-128-288-288s128-288 288-288h384c160 0 288 128 288 288s-128 288-288 288zM736 234.667h-384c-89.6 0-160 70.4-160 160s70.4 160 160 160h384c89.6 0 160-70.4 160-160s-70.4-160-160-160zM832 394.667c0-53.019-42.981-96-96-96s-96 42.981-96 96c0 53.019 42.981 96 96 96s96-42.981 96-96z" />
<glyph unicode="&#xe922;" glyph-name="ishop_3-09" d="M665.6 529.067h-75.264v152.32l-155.136 1.28v-153.6h-76.8l153.6-179.2 153.6 179.2zM281.6 273.067h460.8c14.138 0 25.6-11.462 25.6-25.6v-51.2c0-14.138-11.462-25.6-25.6-25.6h-460.8c-14.138 0-25.6 11.462-25.6 25.6v51.2c0 14.138 11.462 25.6 25.6 25.6z" />
<glyph unicode="&#xe923;" glyph-name="ishop_2-14" d="M348.16 324.267h40.96c11.311 0 20.48-9.169 20.48-20.48v-40.96c0-11.311-9.169-20.48-20.48-20.48h-40.96c-11.311 0-20.48 9.169-20.48 20.48v40.96c0 11.311 9.169 20.48 20.48 20.48zM634.88 324.267h40.96c11.311 0 20.48-9.169 20.48-20.48v-40.96c0-11.311-9.169-20.48-20.48-20.48h-40.96c-11.311 0-20.48 9.169-20.48 20.48v40.96c0 11.311 9.169 20.48 20.48 20.48zM389.12 447.147h245.76v-81.92h40.96v81.92c0 22.622-18.338 40.96-40.96 40.96v0h-102.4v40.96c11.311 0 20.48 9.169 20.48 20.48v0 40.96c0 11.311-9.169 20.48-20.48 20.48v0h-40.96c-11.311 0-20.48-9.169-20.48-20.48v0-40.96c0-11.311 9.169-20.48 20.48-20.48v0-40.96h-102.4c-22.622 0-40.96-18.338-40.96-40.96v0-81.92h40.96z" />
<glyph unicode="&#xe924;" glyph-name="ishop_6-12" d="M583.68 426.667l220.16 220.16c20.48 20.48 20.48 51.2 0 71.68s-51.2 20.48-71.68 0l-220.16-220.16-220.16 220.16c-20.48 20.48-51.2 20.48-71.68 0s-20.48-51.2 0-71.68l220.16-220.16-220.16-220.16c-20.48-20.48-20.48-51.2 0-71.68 10.24-10.24 20.48-15.36 35.84-15.36s25.6 5.12 35.84 15.36l220.16 220.16 220.16-220.16c10.24-10.24 25.6-15.36 35.84-15.36s25.6 5.12 35.84 15.36c20.48 20.48 20.48 51.2 0 71.68l-220.16 220.16z" />
<glyph unicode="&#xe925;" glyph-name="ishop_2-15" d="M317.44 507.153v-99.533c0-17.758 14.396-32.154 32.154-32.154v0h8.806v163.84h-8.806c-17.758 0-32.154-14.396-32.154-32.154v0zM684.442 504.901c-10.232 8.595-23.548 13.817-38.084 13.817-4.061 0-8.027-0.408-11.859-1.184l0.381 0.065-9.626-1.843v64.512c0 11.311-9.169 20.48-20.48 20.48v0h-4.301l-199.885-61.44v-163.84l68.198-20.48 35.226-88.064c2.788-8.229 10.443-14.046 19.456-14.046 11.321 0 20.498 9.177 20.498 20.498 0 2.307-0.381 4.526-1.084 6.596l0.043-0.144-23.962 59.802 78.438-23.962h3.482c1.212-0.255 2.605-0.401 4.033-0.401 9.637 0 17.719 6.656 19.9 15.621l0.029 0.14c0.096 0.707 0.151 1.525 0.151 2.355s-0.055 1.648-0.161 2.449l0.010-0.094v63.283l9.626-1.843c3.583-0.765 7.699-1.204 11.918-1.204 14.606 0 27.984 5.254 38.349 13.976l-0.091-0.074c13.773 11.353 22.487 28.416 22.487 47.514s-8.714 36.161-22.382 47.43l-0.105 0.084zM659.251 441.003c-3.52-2.937-8.091-4.72-13.079-4.72-1.46 0-2.884 0.153-4.258 0.443l0.134-0.024-17.408 3.482v34.406l17.408 3.482c1.24 0.267 2.664 0.42 4.124 0.42 4.988 0 9.56-1.783 13.112-4.747l-0.033 0.027c4.997-3.776 8.192-9.707 8.192-16.384s-3.195-12.608-8.14-16.347l-0.052-0.037z" />
<glyph unicode="&#xe926;" glyph-name="ishop_6-14" d="M916.48 145.067l-358.4 614.4c-10.24 15.36-25.6 25.6-46.080 25.6s-35.84-10.24-46.080-25.6l-358.4-614.4c-5.12-5.12-5.12-15.36-5.12-25.6 0-30.72 20.48-51.2 51.2-51.2h716.8c30.72 0 51.2 20.48 51.2 51.2 0 10.24 0 20.48-5.12 25.6zM563.2 119.467h-102.4v102.4h102.4v-102.4zM563.2 324.267h-102.4v307.2h102.4v-307.2z" />
<glyph unicode="&#xe927;" glyph-name="ishop_2-16" d="M645.12 610.987v-307.2c0-11.311-9.169-20.48-20.48-20.48v0h-225.28c-11.311 0-20.48 9.169-20.48 20.48v0 245.76c0 11.311 9.169 20.48 20.48 20.48v0h40.96v40.96h-40.96c-33.932 0-61.44-27.508-61.44-61.44v0-245.76c0-33.932 27.508-61.44 61.44-61.44v0h225.28c33.932 0 61.44 27.508 61.44 61.44v0 307.2zM604.16 467.627v143.36h-122.88v-143.36l61.44 40.96 61.44-40.96z" />
<glyph unicode="&#xe928;" glyph-name="ishop_6-16" d="M614.4 682.667v51.2c0 30.72-20.48 51.2-51.2 51.2h-102.4c-30.72 0-51.2-20.48-51.2-51.2v-51.2h-256v-102.4h716.8v102.4h-256zM670.72 170.667h-317.44l-46.080 363.52-102.4-10.24 56.32-455.68h501.76l56.32 455.68-102.4 10.24z" />
<glyph unicode="&#xe929;" glyph-name="ishop_6-18" d="M476.16 416.427c10.24-10.24 25.6-15.36 35.84-15.36s25.6 5.12 35.84 15.36l204.8 204.8c20.48 20.48 20.48 51.2 0 71.68s-51.2 20.48-71.68 0l-168.96-168.96-168.96 168.96c-20.48 20.48-51.2 20.48-71.68 0s-20.48-51.2 0-71.68l204.8-204.8zM680.96 436.907l-168.96-168.96-168.96 168.96c-20.48 20.48-51.2 20.48-71.68 0s-20.48-51.2 0-71.68l204.8-204.8c10.24-10.24 25.6-15.36 35.84-15.36s25.6 5.12 35.84 15.36l204.8 204.8c20.48 20.48 20.48 51.2 0 71.68s-51.2 20.48-71.68 0z" />
<glyph unicode="&#xe92a;" glyph-name="ishop_6-19" d="M855.040 155.307l-143.36 143.36c35.84 51.2 56.32 112.64 56.32 179.2 0 168.96-138.24 307.2-307.2 307.2s-307.2-138.24-307.2-307.2 138.24-307.2 307.2-307.2c66.56 0 128 20.48 179.2 56.32l143.36-143.36c10.24-10.24 25.6-15.36 35.84-15.36s25.6 5.12 35.84 15.36c20.48 20.48 20.48 51.2 0 71.68zM460.8 273.067c-112.64 0-204.8 92.16-204.8 204.8s92.16 204.8 204.8 204.8 204.8-92.16 204.8-204.8-92.16-204.8-204.8-204.8z" />
<glyph unicode="&#xe92b;" glyph-name="ishop_7-01" d="M384 938.667h-384v-1024h384c70.4 0 128 57.6 128 128v768c0 70.4-57.6 128-128 128zM128 170.667v512l256-256-256-256z" />
<glyph unicode="&#xe92c;" glyph-name="ishop_7-02" d="M384 938.667h-384v-1024h384c70.4 0 128 57.6 128 128v768c0 70.4-57.6 128-128 128zM384 682.667v-512l-256 256 256 256z" />
<glyph unicode="&#xe92d;" glyph-name="ishop_7-03" d="M128 426.667v384h-128v-768l384 384z" />
<glyph unicode="&#xe92e;" glyph-name="ishop_7-04" d="M128 426.667v-384h-128v768l384-384z" />
<glyph unicode="&#xe92f;" glyph-name="ishop_2-17" d="M696.32 550.981c-0.271 4.199-1.768 8.002-4.133 11.109l0.037-0.050c-0.87 1.142-1.811 2.148-2.844 3.052l-0.024 0.020c-3.556 3.056-8.217 4.916-13.312 4.916-0.072 0-0.144 0-0.216-0.001h-81.909c-0.035 0-0.077 0-0.119 0-11.311 0-20.48-9.169-20.48-20.48 0-5.685 2.316-10.829 6.057-14.54l0.001-0.001 26.624-26.419-36.659-36.659c-4.222-4.044-9.961-6.534-16.282-6.534s-12.060 2.49-16.29 6.542l0.008-0.008c-11.73 11.17-27.642 18.042-45.158 18.042s-33.428-6.872-45.185-18.067l0.027 0.025-30.72-30.72c-4.393-3.779-7.159-9.344-7.159-15.555 0-11.311 9.169-20.48 20.48-20.48 6.211 0 11.777 2.765 15.533 7.132l0.023 0.027 30.72 30.72c4.222 4.044 9.961 6.534 16.282 6.534s12.060-2.49 16.29-6.542l-0.008 0.008c11.73-11.17 27.642-18.042 45.158-18.042s33.428 6.872 45.185 18.067l-0.027-0.025 36.659 36.659 26.419-26.419c3.712-3.742 8.856-6.058 14.541-6.058 11.281 0 20.431 9.12 20.48 20.389v81.925s0 0 0 1.434zM675.84 283.307h-286.72c-11.311 0-20.48 9.169-20.48 20.48v0 286.72c0 11.311-9.169 20.48-20.48 20.48s-20.48-9.169-20.48-20.48v0-286.72c0-33.932 27.508-61.44 61.44-61.44v0h286.72c11.311 0 20.48 9.169 20.48 20.48s-9.169 20.48-20.48 20.48v0z" />
<glyph unicode="&#xe930;" glyph-name="ishop_8-01" d="M768 426.667c0-141.385-114.615-256-256-256s-256 114.615-256 256c0 141.385 114.615 256 256 256s256-114.615 256-256z" />
<glyph unicode="&#xe931;" glyph-name="ishop_8-02" d="M768 597.334l-256-256-256 256h-85.333v-85.333l256-256h170.667l256 256v85.333z" />
<glyph unicode="&#xe932;" glyph-name="ishop_2-10" d="M442.368 455.339c-4.096 4.096-10.24 4.096-14.336 0l-14.336-14.336c-4.096-4.096-4.096-10.24 0-14.336l79.872-79.872c4.096-4.096 10.24-6.144 14.336-6.144s10.24 2.048 14.336 6.144l172.032 172.032c4.096 4.096 4.096 10.24 0 14.336l-14.336 14.336c-4.096 4.096-10.24 4.096-14.336 0l-155.648-155.648-67.584 63.488zM692.224 459.435l-36.864-36.864c-2.048-77.824-65.536-139.264-143.36-139.264-79.872 0-143.36 63.488-143.36 143.36s63.488 143.36 143.36 143.36c32.768 0 63.488-12.288 88.064-30.72l28.672 28.672c-32.768 26.624-71.68 40.96-116.736 40.96-102.4 0-184.32-81.92-184.32-184.32s81.92-184.32 184.32-184.32c102.4 0 184.32 81.92 184.32 184.32 0 14.336-2.048 24.576-4.096 34.816z" />
<glyph unicode="&#xe933;" glyph-name="ishop_2-11" d="M696.32 303.787c0-33.932-27.508-61.44-61.44-61.44s-61.44 27.508-61.44 61.44c0 33.932 27.508 61.44 61.44 61.44s61.44-27.508 61.44-61.44zM614.4 610.987h-204.8c-45.056 0-81.92-36.864-81.92-81.92v-204.8c0-45.056 36.864-81.92 81.92-81.92h143.36c-8.192 12.288-16.384 26.624-18.432 40.96h-124.928c-22.528 0-40.96 18.432-40.96 40.96v204.8c0 22.528 18.432 40.96 40.96 40.96h204.8c22.528 0 40.96-18.432 40.96-40.96v-124.928c14.336-4.096 28.672-10.24 40.96-18.432v143.36c0 45.056-36.864 81.92-81.92 81.92zM409.6 529.067h204.8v-40.96h-204.8v40.96zM409.6 447.147h204.8v-40.96h-204.8v40.96zM409.6 324.267h124.928c4.096 14.336 10.24 28.672 18.432 40.96h-143.36v-40.96z" />
<glyph unicode="&#xe934;" glyph-name="ishop_2-12" d="M675.84 610.987h-137.216c-6.144 0-10.24-2.048-14.336-6.144l-188.416-188.416c-8.192-8.192-8.192-20.48 0-28.672l137.216-137.216c8.192-8.192 20.48-8.192 28.672 0l188.416 188.416c4.096 2.048 6.144 8.192 6.144 12.288v139.264c0 10.24-10.24 20.48-20.48 20.48zM491.52 324.267l-81.92 81.92 20.48 20.48 81.92-81.92-20.48-20.48zM542.72 375.467l-81.92 81.92 20.48 20.48 81.92-81.92-20.48-20.48zM593.92 426.667l-81.92 81.92 20.48 20.48 81.92-81.92-20.48-20.48zM634.88 529.067c-12.288 0-20.48 8.192-20.48 20.48s8.192 20.48 20.48 20.48 20.48-8.192 20.48-20.48c0-12.288-8.192-20.48-20.48-20.48z" />
<glyph unicode="&#xe935;" glyph-name="ishop_8-03" d="M341.333 682.667l256-256-256-256v-85.333h85.333l256 256v170.667l-256 256h-85.333z" />
<glyph unicode="&#xe936;" glyph-name="ishop_6-20" d="M307.2 68.267c-56.32 0-102.4 46.080-102.4 102.4v512c0 56.32 46.080 102.4 102.4 102.4 20.48 0 35.84-5.12 56.32-15.36l409.6-256c30.72-20.48 46.080-51.2 46.080-87.040s-20.48-66.56-46.080-87.040l-409.6-256c-20.48-10.24-35.84-15.36-56.32-15.36zM307.2 682.667v-512l409.6 256-409.6 256z" />
<glyph unicode="&#xe937;" glyph-name="ishop_8-04" d="M512 938.667c-285.257 0-512-226.743-512-512s226.743-512 512-512c285.257 0 512 226.743 512 512s-226.743 512-512 512zM512 60.953c-43.886 0-73.143 29.257-73.143 73.143s29.257 73.143 73.143 73.143c43.886 0 73.143-29.257 73.143-73.143 0-36.571-36.571-73.143-73.143-73.143zM585.143 426.667c0-43.886-29.257-73.143-73.143-73.143s-73.143 29.257-73.143 73.143v292.571c0 43.886 29.257 73.143 73.143 73.143s73.143-29.257 73.143-73.143v-292.571z" />
<glyph unicode="&#xe938;" glyph-name="ishop_9-01" d="M877.714 828.953l-109.714 109.714-599.771-599.771-21.943-131.657 131.657 21.943zM0 60.953h1024v-146.286h-1024v146.286z" />
<glyph unicode="&#xe939;" glyph-name="ishop_9-03" d="M938.667 938.667h-341.333c-51.2 0-85.333-34.133-85.333-85.333s34.133-85.333 85.333-85.333h136.533l-145.067-145.067c-59.733 34.133-128 59.733-204.8 59.733-213.333 0-384-170.667-384-384s170.667-384 384-384 384 170.667 384 384c0 76.8-25.6 145.067-59.733 204.8l145.067 145.067v-136.533c0-51.2 34.133-85.333 85.333-85.333s85.333 34.133 85.333 85.333v341.333c0 51.2-34.133 85.333-85.333 85.333zM384 85.334c-119.467 0-213.333 93.867-213.333 213.333s93.867 213.333 213.333 213.333 213.333-93.867 213.333-213.333-93.867-213.333-213.333-213.333z" />
<glyph unicode="&#xe93a;" glyph-name="ishop_9-02" d="M640 938.667c-213.333 0-384-170.667-384-384 0-76.8 25.6-145.067 59.733-204.8l-59.733-59.733-110.933 110.933c-34.133 34.133-85.333 34.133-119.467 0s-34.133-85.333 0-119.467l110.933-110.933-110.933-110.933c-34.133-34.133-34.133-85.333 0-119.467 17.067-17.067 34.133-25.6 59.733-25.6s42.667 8.533 59.733 25.6l110.933 110.933 110.933-110.933c17.067-17.067 34.133-25.6 59.733-25.6s42.667 8.533 59.733 25.6c34.133 34.133 34.133 85.333 0 119.467l-110.933 110.933 59.733 59.733c59.733-34.133 128-59.733 204.8-59.733 213.333 0 384 170.667 384 384s-170.667 384-384 384zM640 341.334c-119.467 0-213.333 93.867-213.333 213.333s93.867 213.333 213.333 213.333 213.333-93.867 213.333-213.333-93.867-213.333-213.333-213.333z" />
<glyph unicode="&#xe93b;" glyph-name="ishop_6-21" d="M563.2 17.067c-20.48 0-40.96 15.36-46.080 35.84l-92.16 281.6-281.6 92.16c-20.48 5.12-35.84 25.6-35.84 46.080s15.36 40.96 35.84 46.080l614.4 204.8c20.48 5.12 40.96 0 51.2-10.24s20.48-35.84 10.24-51.2l-204.8-614.4c-10.24-15.36-30.72-30.72-51.2-30.72zM317.44 477.867l163.84-56.32c15.36-5.12 25.6-15.36 30.72-30.72l56.32-163.84 122.88 373.76-373.76-122.88z" />
<glyph unicode="&#xe93c;" glyph-name="ishopwebicon_6-20" d="M512 221.867c-30.72 0-51.2 20.48-51.2 51.2s20.48 51.2 51.2 51.2c30.72 0 51.2-20.48 51.2-51.2s-20.48-51.2-51.2-51.2zM563.2 426.667c0-30.72-20.48-51.2-51.2-51.2s-51.2 20.48-51.2 51.2v102.4c0 30.72 20.48 51.2 51.2 51.2s51.2-20.48 51.2-51.2v-102.4zM512 682.667c20.48 0 35.84-10.24 40.96-25.6l256-409.6c5.12-10.24 10.24-15.36 10.24-25.6 0-30.72-20.48-51.2-51.2-51.2h-512c-30.72 0-51.2 20.48-51.2 51.2 0 10.24 5.12 20.48 10.24 25.6l256 409.6c5.12 15.36 20.48 25.6 40.96 25.6zM512 785.067c-51.2 0-102.4-25.6-128-71.68l-256-409.6c-15.36-25.6-25.6-51.2-25.6-81.92 0-87.040 66.56-153.6 153.6-153.6h512c87.040 0 153.6 66.56 153.6 153.6 0 30.72-10.24 56.32-25.6 81.92l-256 409.6c-25.6 46.080-76.8 71.68-128 71.68v0z" />
<glyph unicode="&#xe93d;" glyph-name="ishop_6-22" d="M632.471 577.255c-216.847 0-391.529-150.588-391.529-331.294s174.682-331.294 391.529-331.294c78.306 0 156.612 18.071 216.847 54.212l114.447-54.212v156.612c36.141 48.188 60.235 108.424 60.235 174.682 0 180.706-174.682 331.294-391.529 331.294zM542.118 215.843h-120.471v120.471h120.471v-120.471zM843.294 215.843h-120.471v120.471h120.471v-120.471zM391.529 938.667c-216.847 0-391.529-150.588-391.529-331.294 0-66.259 24.094-126.494 60.235-174.682v-156.612l114.447 54.212c6.024-6.024 12.047-6.024 18.071-6.024 30.118 132.518 144.565 246.965 289.129 289.129v84.329h120.471v-60.235c12.047 0 18.071 0 30.118 0 54.212 0 102.4-6.024 150.588-24.094-6.024 180.706-180.706 325.271-391.529 325.271zM301.176 577.255h-120.471v120.471h120.471v-120.471z" />
<glyph unicode="&#xe93e;" glyph-name="ishopwebicon_6-23" d="M716.8 785.067h-358.4v-102.4h358.4c30.72 0 51.2-20.48 51.2-51.2v-409.6c0-30.72-20.48-51.2-51.2-51.2h-358.4v-102.4h358.4c87.040 0 153.6 66.56 153.6 153.6v409.6c0 87.040-66.56 153.6-153.6 153.6zM424.96 308.907c-20.48-20.48-20.48-51.2 0-71.68 10.24-10.24 20.48-15.36 35.84-15.36s25.6 5.12 35.84 15.36l153.6 153.6c20.48 20.48 20.48 51.2 0 71.68l-153.6 153.6c-20.48 20.48-51.2 20.48-71.68 0s-20.48-51.2 0-71.68l66.56-66.56h-337.92v-102.4h337.92l-66.56-66.56z" />
<glyph unicode="&#xe93f;" glyph-name="ishopwebicon_6-24" d="M307.2 68.267h358.4v102.4h-358.4c-30.72 0-51.2 20.48-51.2 51.2v409.6c0 30.72 20.48 51.2 51.2 51.2h358.4v102.4h-358.4c-87.040 0-153.6-66.56-153.6-153.6v-409.6c0-87.040 66.56-153.6 153.6-153.6zM629.76 308.907c-20.48-20.48-20.48-51.2 0-71.68 10.24-10.24 25.6-15.36 35.84-15.36s25.6 5.12 35.84 15.36l153.6 153.6c20.48 20.48 20.48 51.2 0 71.68l-153.6 153.6c-20.48 20.48-51.2 20.48-71.68 0s-20.48-51.2 0-71.68l66.56-66.56h-337.92v-102.4h337.92l-66.56-66.56z" />
<glyph unicode="&#xe940;" glyph-name="ishop_9-04" d="M0 499.81h146.286v-292.571h-146.286v292.571zM585.143 719.238h146.286v-512h-146.286v512zM877.714 938.667h146.286v-731.429h-146.286v731.429zM292.571 353.524h146.286v-146.286h-146.286v146.286zM0 60.953h1024v-146.286h-1024v146.286z" />
<glyph unicode="&#xe941;" glyph-name="ishop_9-05" d="M0 938.667h1024v-146.286h-1024v146.286zM0 646.096h1024v-146.286h-1024v146.286zM0 353.524h1024v-146.286h-1024v146.286zM0 60.953h1024v-146.286h-1024v146.286z" />
<glyph unicode="&#xe942;" glyph-name="ishop_6-25" d="M512 938.667c-281.6 0-512-230.4-512-512s230.4-512 512-512 512 230.4 512 512-230.4 512-512 512zM640 490.667v-320h-256v320h-128l256 256 256-256h-128z" />
<glyph unicode="&#xe943;" glyph-name="ishop_6-26" d="M512-85.333c281.6 0 512 230.4 512 512s-230.4 512-512 512c-281.6 0-512-230.4-512-512s230.4-512 512-512zM384 362.667v320h256v-320h128l-256-256-256 256h128z" />
<glyph unicode="&#xe944;" glyph-name="ishop_6-27" horiz-adv-x="171" d="M0 938.667h170.667v-170.667h-170.667v170.667zM0 512h170.667v-170.667h-170.667v170.667zM0 85.334h170.667v-170.667h-170.667v170.667z" />
<glyph unicode="&#xe945;" glyph-name="ishop_6-29" d="M853.333 512h170.667v-170.667h-170.667v170.667zM426.667 512h170.667v-170.667h-170.667v170.667zM0 512h170.667v-170.667h-170.667v170.667z" />
<glyph unicode="&#xe946;" glyph-name="ishop_6-28" horiz-adv-x="341" d="M0 938.667h341.333v-1024h-341.333v1024z" />
<glyph unicode="&#xe947;" glyph-name="ishop_6-30" d="M665.6 626.347c0-87.040-66.56-199.68-153.6-199.68s-153.6 112.64-153.6 199.68 66.56 158.72 153.6 158.72 153.6-71.68 153.6-158.72zM819.2 68.267h-614.4v204.8c0 87.040 66.56 153.6 153.6 153.6l153.6-102.4 153.6 102.4c87.040 0 153.6-66.56 153.6-153.6v-204.8z" />
<glyph unicode="&#xe948;" glyph-name="ishop_6-31" horiz-adv-x="384" d="M32-85.333c-6.4 0-12.8 0-19.2 6.4s-12.8 12.8-12.8 25.6c0 6.4 0 12.8 6.4 19.2l307.2 460.8-307.2 460.8c-6.4 6.4-6.4 12.8-6.4 19.2 0 12.8 6.4 19.2 12.8 25.6s12.8 6.4 19.2 6.4 19.2-6.4 25.6-12.8l320-480c6.4-6.4 6.4-12.8 6.4-19.2s0-12.8-6.4-19.2l-320-480c-6.4-6.4-12.8-12.8-25.6-12.8z" />
<glyph unicode="&#xe949;" glyph-name="ishop_8-05" d="M515.2 391.467c9.6 9.6 16 25.6 16 35.2s-6.4 25.6-16 35.2l-204.8 204.8c-19.2 19.2-51.2 19.2-70.4 0s-19.2-51.2 0-70.4l169.6-169.6-169.6-169.6c-19.2-19.2-19.2-51.2 0-70.4s51.2-19.2 70.4 0l204.8 204.8zM508.8 596.267l169.6-169.6-169.6-169.6c-19.2-19.2-19.2-51.2 0-70.4s51.2-19.2 70.4 0l204.8 204.8c9.6 9.6 16 25.6 16 35.2s-6.4 25.6-16 35.2l-204.8 204.8c-19.2 19.2-51.2 19.2-70.4 0s-22.4-51.2 0-70.4z" />
<glyph unicode="&#xe94a;" glyph-name="ishop_2-13" d="M499.712 410.283c2.048-2.048 8.192-4.096 12.288-4.096 6.144 0 12.288 2.048 16.384 8.192l122.88 147.456c6.144 8.192 6.144 20.48-4.096 28.672-8.192 8.192-22.528 6.144-28.672-2.048l-122.88-147.456c-6.144-10.24-6.144-22.528 4.096-30.72zM669.696 520.875l-110.592-133.12c-12.288-14.336-28.672-22.528-47.104-22.528-14.336 0-28.672 4.096-38.912 14.336-26.624 22.528-28.672 61.44-8.192 86.016l110.592 133.12c-20.48 8.192-40.96 12.288-63.488 12.288-102.4 0-184.32-81.92-184.32-184.32s81.92-184.32 184.32-184.32 184.32 81.92 184.32 184.32c0 34.816-10.24 65.536-26.624 94.208z" />
<glyph unicode="&#xe94b;" glyph-name="ishop_6-32" d="M832 874.667h-704c-32 0-64-32-64-64v-704c0-32 32-64 64-64h704c32 0 64 32 64 64v704c0 32-32 64-64 64zM832 106.667h-704v704h704v-704zM448 234.667h64v192h192v64h-192v192h-64v-192h-192v-64h192z" />
<glyph unicode="&#xe94c;" glyph-name="ishop_6-33" d="M832 874.667h-704c-32 0-64-32-64-64v-704c0-32 32-64 64-64h704c32 0 64 32 64 64v704c0 32-32 64-64 64zM832 106.667h-704v704h704v-704zM256 490.667h448v-64h-448v64z" />
<glyph unicode="&#xe94d;" glyph-name="ishop_2-18" d="M656.589 590.507h-289.178c-21.943 0-39.731-17.788-39.731-39.731v0-206.029h368.64v206.029c0 21.943-17.788 39.731-39.731 39.731v0zM450.56 385.707h-40.96v81.92h40.96zM532.48 385.707h-40.96v163.84h40.96zM614.4 385.707h-40.96v81.92h40.96zM368.64 262.827h286.72c22.622 0 40.96 18.338 40.96 40.96v0h-368.64c0-22.622 18.338-40.96 40.96-40.96v0z" />
<glyph unicode="&#xe94e;" glyph-name="ishop_2-19" d="M649.216 590.507h-274.432c-14.612-0.227-26.397-12.012-26.624-26.603v-137.237h327.68v137.216c-0.227 14.612-12.012 26.397-26.603 26.624h-0.021zM358.4 385.707h307.2c5.655 0 10.24-4.585 10.24-10.24v-20.48c0-5.655-4.585-10.24-10.24-10.24h-307.2c-5.655 0-10.24 4.585-10.24 10.24v20.48c0 5.655 4.585 10.24 10.24 10.24zM358.4 303.787h225.28c5.655 0 10.24-4.585 10.24-10.24v-20.48c0-5.655-4.585-10.24-10.24-10.24h-225.28c-5.655 0-10.24 4.585-10.24 10.24v20.48c0 5.655 4.585 10.24 10.24 10.24z" />
<glyph unicode="&#xe94f;" glyph-name="ishop_2-20" d="M512 621.227c-63.488 0-118.784-43.008-133.12-102.4h40.96c12.288 36.864 51.2 61.44 92.16 61.44s79.872-26.624 92.16-61.44h40.96c-14.336 59.392-69.632 102.4-133.12 102.4zM483.328 314.027c-14.336 0-26.624-8.192-34.816-18.432-16.384 6.144-28.672 20.48-28.672 38.912v143.36h-40.96v-20.48h-16.384c-24.576 0-47.104-20.48-47.104-47.104v-10.24c0-24.576 20.48-47.104 47.104-47.104h16.384v-20.48c0-40.96 28.672-73.728 67.584-79.872 0 0 0 0 0 0 6.144-12.288 20.48-22.528 36.864-22.528 22.528 0 40.96 18.432 40.96 40.96s-18.432 43.008-40.96 43.008zM661.504 457.387h-16.384v20.48h-40.96v-122.88h57.344c24.576 0 47.104 20.48 47.104 47.104v10.24c-2.048 24.576-22.528 45.056-47.104 45.056z" />
<glyph unicode="&#xe950;" glyph-name="ishop_9-07" d="M512 42.667l320 384h-128v384h-384v-384h-128z" />
<glyph unicode="&#xe951;" glyph-name="ishop_9-06" d="M512 810.667l-320-384h128v-384h384v384h128z" />
<glyph unicode="&#xe952;" glyph-name="ishop_7-05" d="M896 426.667v-384h128v768l-384-384h256z" />
<glyph unicode="&#xe953;" glyph-name="ishop_2-21" d="M624.64 590.507v-40.96c12.288 0 20.48-10.24 20.48-20.48v-245.76c0-10.24-8.192-20.48-20.48-20.48h-225.28c-12.288 0-20.48 10.24-20.48 20.48v245.76c0 10.24 8.192 20.48 20.48 20.48v40.96c-32.768 0-61.44-28.672-61.44-61.44v-245.76c0-32.768 28.672-61.44 61.44-61.44h225.28c32.768 0 61.44 28.672 61.44 61.44v245.76c0 32.768-28.672 61.44-61.44 61.44zM583.68 592.555c-20.48-6.144-40.96 8.192-40.96 28.672 0 6.144-4.096 10.24-10.24 10.24h-40.96c-6.144 0-10.24-4.096-10.24-10.24 0-20.48-20.48-34.816-40.96-28.672v-43.008h143.36v43.008zM440.32 365.227c6.144 0 12.288 4.096 16.384 8.192l26.624 40.96 43.008-43.008c4.096-4.096 10.24-6.144 16.384-6.144s12.288 4.096 14.336 8.192l40.96 61.44c6.144 10.24 4.096 22.528-6.144 28.672s-22.528 4.096-28.672-6.144l-26.624-40.96-43.008 43.008c-2.048 6.144-8.192 8.192-14.336 8.192s-12.288-4.096-14.336-8.192l-40.96-61.44c-6.144-10.24-4.096-22.528 6.144-28.672 2.048-2.048 6.144-4.096 10.24-4.096z" />
<glyph unicode="&#xe954;" glyph-name="ishop_9-09" d="M550.4 829.867c-25.6 25.6-25.6 64 0 89.6s64 25.6 89.6 0c275.2-268.8 275.2-716.8 0-985.6-12.8-12.8-25.6-19.2-44.8-19.2s-32 6.4-44.8 19.2c-25.6 25.6-25.6 64 0 89.6 224 224 224 582.4 0 806.4zM371.2 740.267c25.6 25.6 64 25.6 89.6 0 83.2-83.2 128-198.4 128-313.6s-44.8-230.4-128-313.6c-12.8-12.8-32-19.2-44.8-19.2s-32 6.4-44.8 19.2c-25.6 25.6-25.6 64 0 89.6 57.6 57.6 89.6 140.8 89.6 224s-32 166.4-89.6 224c-25.6 25.6-25.6 64 0 89.6zM198.4 465.067c-25.6 25.6-25.6 64 0 89.6s64 25.6 89.6 0c76.8-76.8 76.8-198.4 0-268.8-12.8-12.8-32-19.2-44.8-19.2s-32 6.4-44.8 19.2c-25.6 25.6-25.6 64 0 89.6s25.6 64 0 89.6z" />
<glyph unicode="&#xe955;" glyph-name="ishop_9-08" d="M473.6 829.867c25.6 25.6 25.6 64 0 89.6s-64 25.6-89.6 0c-275.2-268.8-275.2-716.8 0-985.6 12.8-12.8 25.6-19.2 44.8-19.2s32 6.4 44.8 19.2c25.6 25.6 25.6 64 0 89.6-224 224-224 582.4 0 806.4zM652.8 740.267c-25.6 25.6-64 25.6-89.6 0-83.2-83.2-128-198.4-128-313.6s44.8-230.4 128-313.6c12.8-12.8 32-19.2 44.8-19.2s32 6.4 44.8 19.2c25.6 25.6 25.6 64 0 89.6-57.6 57.6-89.6 140.8-89.6 224s32 166.4 89.6 224c25.6 25.6 25.6 64 0 89.6zM825.6 465.067c25.6 25.6 25.6 64 0 89.6s-64 25.6-89.6 0c-76.8-76.8-76.8-198.4 0-268.8 12.8-12.8 32-19.2 44.8-19.2s32 6.4 44.8 19.2c25.6 25.6 25.6 64 0 89.6s-25.6 64 0 89.6z" />
<glyph unicode="&#xe956;" glyph-name="ishop_6-36" d="M940.8 407.467c-25.6 25.6-64 25.6-89.6 0l-51.2-51.2-51.2 51.2c-25.6 25.6-64 25.6-89.6 0s-25.6-64 0-89.6l51.2-51.2-51.2-51.2c-25.6-25.6-25.6-64 0-89.6 12.8-12.8 32-19.2 44.8-19.2s32 6.4 44.8 19.2l51.2 51.2 51.2-51.2c12.8-12.8 32-19.2 44.8-19.2s32 6.4 44.8 19.2c25.6 25.6 25.6 64 0 89.6l-51.2 51.2 51.2 51.2c25.6 25.6 25.6 64 0 89.6zM192 234.667v281.6l294.4-147.2c6.4-6.4 12.8-6.4 25.6-6.4s19.2 0 25.6 6.4l38.4 19.2c6.4 25.6 19.2 44.8 32 64 32 25.6 64 38.4 96 38.4 19.2 0 38.4-6.4 51.2-12.8l76.8 38.4v-25.6h128v256c0 38.4-25.6 64-64 64h-768c-38.4 0-64-25.6-64-64v-576c0-38.4 25.6-64 64-64h448v128h-384zM192 682.667h640v-25.6l-320-160-320 160v25.6z" />
<glyph unicode="&#xe95c;" glyph-name="ishop_6-13" d="M460.8 221.867c-15.36 0-25.6 5.12-35.84 15.36l-153.6 153.6c-20.48 20.48-20.48 51.2 0 71.68s51.2 20.48 71.68 0l112.64-112.64 220.16 266.24c20.48 20.48 51.2 25.6 71.68 5.12s25.6-51.2 5.12-71.68l-256-307.2c-5.12-15.36-20.48-20.48-35.84-20.48 0 0 0 0 0 0z" />
<glyph unicode="&#xe95d;" glyph-name="ishop_6-08" d="M460.8 477.867h102.4v-102.4h-102.4v102.4zM665.6 477.867h102.4v-102.4h-102.4v102.4zM256 477.867h102.4v-102.4h-102.4v102.4zM819.2 682.667v-102.4c30.72 0 51.2-20.48 51.2-51.2v-204.8c0-30.72-20.48-51.2-51.2-51.2v-102.4c87.040 0 153.6 66.56 153.6 153.6v204.8c0 87.040-66.56 153.6-153.6 153.6zM51.2 529.067v-204.8c0-87.040 66.56-153.6 153.6-153.6v102.4c-30.72 0-51.2 20.48-51.2 51.2v204.8c0 30.72 20.48 51.2 51.2 51.2v102.4c-87.040 0-153.6-66.56-153.6-153.6z" />
<glyph unicode="&#xe95e;" glyph-name="ishop_6-09" d="M716.8 324.267v-102.4h-409.6v102.4h-102.4v-204.8h614.4v204.8zM460.8 559.787v-235.52h102.4v235.52l66.56-66.56 71.68 71.68-153.6 153.6c-20.48 20.48-51.2 20.48-71.68 0l-153.6-153.6 71.68-71.68 66.56 66.56z" />
<glyph unicode="&#xe95f;" glyph-name="ishop_6-10" d="M691.2 759.467h-153.6c-87.040 0-153.6-66.56-153.6-153.6v-51.2h-51.2c-87.040 0-153.6-66.56-153.6-153.6v-153.6c0-87.040 66.56-153.6 153.6-153.6h153.6c87.040 0 153.6 66.56 153.6 153.6v51.2h51.2c87.040 0 153.6 66.56 153.6 153.6v153.6c0 87.040-66.56 153.6-153.6 153.6zM537.6 247.467c0-30.72-20.48-51.2-51.2-51.2h-153.6c-30.72 0-51.2 20.48-51.2 51.2v153.6c0 30.72 20.48 51.2 51.2 51.2h153.6c30.72 0 51.2-20.48 51.2-51.2v-153.6zM742.4 452.267c0-30.72-20.48-51.2-51.2-51.2h-51.2c0 87.040-66.56 153.6-153.6 153.6v51.2c0 30.72 20.48 51.2 51.2 51.2h153.6c30.72 0 51.2-20.48 51.2-51.2v-153.6z" />
<glyph unicode="&#xe960;" glyph-name="ishop_6-11" d="M716.8 416.427v215.040c0 56.32-46.080 102.4-102.4 102.4h-204.8c-56.32 0-102.4-46.080-102.4-102.4v-215.040c-61.44-20.48-102.4-76.8-102.4-143.36 0-87.040 66.56-153.6 153.6-153.6h307.2c87.040 0 153.6 66.56 153.6 153.6 0 66.56-40.96 122.88-102.4 143.36zM614.4 631.467v-204.8h-204.8v204.8h204.8zM665.6 221.867h-307.2c-30.72 0-51.2 20.48-51.2 51.2s20.48 51.2 51.2 51.2h307.2c30.72 0 51.2-20.48 51.2-51.2s-20.48-51.2-51.2-51.2z" />
<glyph unicode="&#xe961;" glyph-name="ishop_6-15" d="M409.6 170.667c-15.36 0-25.6 5.12-35.84 15.36l-204.8 204.8c-20.48 20.48-20.48 51.2 0 71.68s51.2 20.48 71.68 0l168.96-168.96 373.76 373.76c20.48 20.48 51.2 20.48 71.68 0s20.48-51.2 0-71.68l-409.6-409.6c-10.24-10.24-20.48-15.36-35.84-15.36z" />
</font>
</defs>
</svg>
